# File created by Blade
# Date/Time:  Thu Sep 25 15:55:53 2014
# Frame Rate: 120.000 fps
#------------------------------------------------------
:FULLY-SPECIFIED
:DEGREES
911
root -1.687070 32.858963 2.486396 11.102797 -0.897076 -2.512173
Spine -12.727408 5.878491 1.213453
Head -10.197623 -10.155623 13.067413
LeftShoulder -14.765557 22.626443 28.460393
LeftArm 18.093806 -24.564599 -26.301637
LeftForeArm 9.831429 -0.000000 11.483857
LeftHand -26.923816 -0.000000 -9.046075
LeftHandThumb1 -26.253704 0.000000 33.147579
RightShoulder -20.466167 10.115656 -41.069933
RightArm -8.332218 10.308289 28.849408
RightForeArm -31.508034 -0.000000 15.922059
RightHand -12.438178 0.000000 8.293887
RightHandThumb1 -24.326973 -0.000000 -32.862282
LeftUpLeg -5.558112 13.889687 -2.507498
LeftLeg -0.291536 -0.000000 0.000000
LeftFoot -7.552585 -6.337066 -19.638200
LeftToeBase 4.451064 -0.000000 -0.000000
RightUpLeg -6.371109 -3.174581 2.579456
RightLeg 2.296070 -0.000000 -0.000000
RightFoot -9.044195 1.194689 -3.144429
RightToeBase -4.259083 -0.000000 0.000000
912
root -1.687999 32.858899 2.480955 11.095161 -0.889793 -2.511304
Spine -12.725597 5.868578 1.221958
Head -10.164018 -10.151212 13.068065
LeftShoulder -14.775474 22.595926 28.455934
LeftArm 18.098031 -24.587647 -26.307749
LeftForeArm 9.849899 -0.000000 11.500677
LeftHand -26.918956 -0.000000 -9.096584
LeftHandThumb1 -26.253704 0.000000 33.147579
RightShoulder -20.476104 10.103736 -41.100541
RightArm -8.388128 10.424501 28.890650
RightForeArm -31.611555 -0.000000 16.058281
RightHand -12.374379 -0.000000 8.410861
RightHandThumb1 -24.326973 -0.000000 -32.862282
LeftUpLeg -5.563957 13.889538 -2.507900
LeftLeg -0.284432 -0.000000 0.000000
LeftFoot -7.552198 -6.353452 -19.641457
LeftToeBase 4.585293 -0.000000 -0.000000
RightUpLeg -6.376269 -3.161213 2.581227
RightLeg 2.304122 -0.000000 -0.000000
RightFoot -9.042642 1.177054 -3.120337
RightToeBase -4.252657 -0.000000 0.000000
913
root -1.689470 32.858789 2.475887 11.091643 -0.887672 -2.524490
Spine -12.730340 5.867157 1.244955
Head -10.121952 -10.160976 13.067848
LeftShoulder -14.797609 22.558440 28.459733
LeftArm 18.137061 -24.590231 -26.336535
LeftForeArm 9.875410 -0.000000 11.488245
LeftHand -26.954278 0.000000 -9.057474
LeftHandThumb1 -26.253704 0.000000 33.147579
RightShoulder -20.475340 10.106979 -41.143409
RightArm -8.402388 10.527121 28.946164
RightForeArm -31.780996 -0.000000 16.064857
RightHand -12.369771 -0.000000 8.418002
RightHandThumb1 -24.326973 -0.000000 -32.862282
LeftUpLeg -5.577008 13.911833 -2.496728
LeftLeg -0.270808 -0.000000 0.000000
LeftFoot -7.545275 -6.369966 -19.652095
LeftToeBase 4.515653 -0.000000 -0.000000
RightUpLeg -6.391489 -3.146902 2.592499
RightLeg 2.325057 -0.000000 -0.000000
RightFoot -9.054449 1.200944 -3.080186
RightToeBase -4.203826 -0.000000 0.000000
914
root -1.691410 32.858608 2.471176 11.082158 -0.879601 -2.537358
Spine -12.721542 5.867970 1.268473
Head -10.095237 -10.175415 13.070400
LeftShoulder -14.800500 22.558507 28.449871
LeftArm 18.150079 -24.621574 -26.350289
LeftForeArm 9.893321 -0.000000 11.499036
LeftHand -26.971615 0.000000 -9.028955
LeftHandThumb1 -26.253704 0.000000 33.147579
RightShoulder -20.496198 10.085711 -41.142766
RightArm -8.379246 10.534391 28.961902
RightForeArm -31.746304 -0.000000 16.079359
RightHand -12.394384 0.000000 8.490836
RightHandThumb1 -24.326973 -0.000000 -32.862282
LeftUpLeg -5.587855 13.935550 -2.479219
LeftLeg -0.246486 -0.000000 0.000000
LeftFoot -7.555827 -6.410088 -19.621156
LeftToeBase 4.519943 -0.000000 -0.000000
RightUpLeg -6.394476 -3.141446 2.609844
RightLeg 2.333476 -0.000000 -0.000000
RightFoot -9.051820 1.182033 -3.098252
RightToeBase -4.222902 -0.000000 0.000000
915
root -1.690376 32.858044 2.466305 11.072471 -0.880015 -2.525073
Spine -12.710268 5.858968 1.269150
Head -10.079523 -10.174916 13.082395
LeftShoulder -14.811169 22.540151 28.440693
LeftArm 18.154977 -24.623638 -26.355000
LeftForeArm 9.926704 0.000000 11.487821
LeftHand -26.992398 -0.000000 -9.010138
LeftHandThumb1 -26.253704 0.000000 33.147579
RightShoulder -20.509503 10.084153 -41.119290
RightArm -8.332567 10.483403 28.949484
RightForeArm -31.668329 -0.000000 16.036226
RightHand -12.327972 -0.000000 8.421614
RightHandThumb1 -24.326973 -0.000000 -32.862282
LeftUpLeg -5.590464 13.940831 -2.492642
LeftLeg -0.239301 -0.000000 0.000000
LeftFoot -7.537272 -6.423495 -19.628316
LeftToeBase 4.411951 -0.000000 -0.000000
RightUpLeg -6.387112 -3.142723 2.598977
RightLeg 2.320338 -0.000000 -0.000000
RightFoot -9.055607 1.153362 -3.142732
RightToeBase -4.176682 -0.000000 0.000000
916
root -1.692594 32.857883 2.461104 11.068050 -0.875280 -2.539189
Spine -12.705651 5.862817 1.291369
Head -10.060347 -10.198859 13.092790
LeftShoulder -14.825017 22.542589 28.429585
LeftArm 18.181965 -24.605821 -26.353281
LeftForeArm 9.943923 -0.000000 11.465631
LeftHand -26.925832 -0.000000 -8.995906
LeftHandThumb1 -26.253704 0.000000 33.147579
RightShoulder -20.516324 10.117796 -41.111321
RightArm -8.309161 10.386991 28.944234
RightForeArm -31.643310 0.000000 15.962901
RightHand -12.402177 0.000000 8.276159
RightHandThumb1 -24.326973 -0.000000 -32.862282
LeftUpLeg -5.598345 13.948187 -2.475135
LeftLeg -0.232654 -0.000000 0.000000
LeftFoot -7.544632 -6.438864 -19.629843
LeftToeBase 4.490245 -0.000000 -0.000000
RightUpLeg -6.401039 -3.121209 2.612051
RightLeg 2.340216 -0.000000 -0.000000
RightFoot -9.048296 1.160782 -3.074174
RightToeBase -4.234634 -0.000000 0.000000
917
root -1.691994 32.857636 2.456151 11.059642 -0.877424 -2.527107
Spine -12.698897 5.853141 1.287066
Head -10.025573 -10.204422 13.109743
LeftShoulder -14.826949 22.537655 28.428142
LeftArm 18.168820 -24.585376 -26.348320
LeftForeArm 9.939794 -0.000000 11.471719
LeftHand -26.956485 0.000000 -8.952781
LeftHandThumb1 -26.253704 0.000000 33.147579
RightShoulder -20.512139 10.110628 -41.069553
RightArm -8.301792 10.381410 28.918130
RightForeArm -31.607590 -0.000000 16.002058
RightHand -12.474885 0.000000 8.285679
RightHandThumb1 -24.326973 -0.000000 -32.862282
LeftUpLeg -5.595490 13.931200 -2.488154
LeftLeg -0.240226 -0.000000 0.000000
LeftFoot -7.542456 -6.416734 -19.649797
LeftToeBase 4.536549 -0.000000 -0.000000
RightUpLeg -6.386564 -3.148097 2.605542
RightLeg 2.305465 -0.000000 -0.000000
RightFoot -9.040842 1.163904 -3.137452
RightToeBase -4.210463 -0.000000 0.000000
918
root -1.691179 32.858039 2.449374 11.062084 -0.896016 -2.530136
Spine -12.695687 5.874287 1.303460
Head -10.002376 -10.223441 13.107537
LeftShoulder -14.829689 22.548207 28.404578
LeftArm 18.162616 -24.562707 -26.331381
LeftForeArm 9.899766 0.000000 11.474820
LeftHand -26.962713 -0.000000 -8.952938
LeftHandThumb1 -26.253704 0.000000 33.147579
RightShoulder -20.519471 10.108463 -41.099262
RightArm -8.323892 10.387059 28.953608
RightForeArm -31.626220 -0.000000 16.032664
RightHand -12.488834 -0.000000 8.143555
RightHandThumb1 -24.326973 -0.000000 -32.862282
LeftUpLeg -5.618077 13.966016 -2.495531
LeftLeg -0.221695 -0.000000 0.000000
LeftFoot -7.538340 -6.435553 -19.630822
LeftToeBase 4.513241 -0.000000 -0.000000
RightUpLeg -6.399262 -3.118104 2.608048
RightLeg 2.300620 -0.000000 -0.000000
RightFoot -9.021333 1.123165 -3.158438
RightToeBase -4.227751 -0.000000 0.000000
919
root -1.693938 32.858344 2.443883 11.052035 -0.889470 -2.536957
Spine -12.684089 5.868432 1.313247
Head -9.973445 -10.245030 13.117232
LeftShoulder -14.824412 22.536963 28.403512
LeftArm 18.143267 -24.530059 -26.311109
LeftForeArm 9.863696 -0.000000 11.473452
LeftHand -26.957171 -0.000000 -8.969133
LeftHandThumb1 -26.253704 0.000000 33.147579
RightShoulder -20.518570 10.124289 -41.095313
RightArm -8.334477 10.343531 28.961188
RightForeArm -31.568649 -0.000000 16.021922
RightHand -12.510713 -0.000000 8.204293
RightHandThumb1 -24.326973 -0.000000 -32.862282
LeftUpLeg -5.622341 13.980970 -2.484341
LeftLeg -0.216924 -0.000000 0.000000
LeftFoot -7.535112 -6.445413 -19.611865
LeftToeBase 4.462026 -0.000000 -0.000000
RightUpLeg -6.407493 -3.100316 2.615513
RightLeg 2.322713 -0.000000 -0.000000
RightFoot -9.030637 1.116631 -3.150597
RightToeBase -4.202606 -0.000000 0.000000
920
root -1.695804 32.858351 2.438789 11.042275 -0.890328 -2.541166
Spine -12.670954 5.865804 1.325986
Head -9.956665 -10.276457 13.125614
LeftShoulder -14.834579 22.585174 28.372629
LeftArm 18.152467 -24.543097 -26.297753
LeftForeArm 9.812413 -0.000000 11.480394
LeftHand -26.969376 -0.000000 -8.933124
LeftHandThumb1 -26.253704 0.000000 33.147579
RightShoulder -20.522730 10.116366 -41.092572
RightArm -8.331415 10.348408 28.967869
RightForeArm -31.573502 -0.000000 16.016319
RightHand -12.435181 -0.000000 8.256676
RightHandThumb1 -24.326973 -0.000000 -32.862282
LeftUpLeg -5.629606 14.025414 -2.480125
LeftLeg -0.201526 -0.000000 0.000000
LeftFoot -7.530361 -6.490096 -19.596948
LeftToeBase 4.577099 -0.000000 -0.000000
RightUpLeg -6.408092 -3.104003 2.624089
RightLeg 2.323833 -0.000000 -0.000000
RightFoot -9.024522 1.113797 -3.147997
RightToeBase -4.179999 -0.000000 0.000000
921
root -1.698202 32.857805 2.436266 11.011087 -0.872609 -2.525282
Spine -12.638544 5.834920 1.313349
Head -9.924951 -10.289297 13.145374
LeftShoulder -14.846077 22.609094 28.361970
LeftArm 18.162000 -24.535146 -26.286265
LeftForeArm 9.768008 -0.000000 11.457437
LeftHand -26.939591 -0.000000 -8.925548
LeftHandThumb1 -26.253704 0.000000 33.147579
RightShoulder -20.515361 10.122743 -41.058106
RightArm -8.328280 10.398557 28.948631
RightForeArm -31.628117 0.000000 15.991453
RightHand -12.448316 -0.000000 8.243545
RightHandThumb1 -24.326973 -0.000000 -32.862282
LeftUpLeg -5.597785 13.992830 -2.479063
LeftLeg -0.210362 -0.000000 0.000000
LeftFoot -7.527575 -6.469331 -19.591762
LeftToeBase 4.540181 -0.000000 -0.000000
RightUpLeg -6.371184 -3.148190 2.616968
RightLeg 2.303150 -0.000000 -0.000000
RightFoot -9.024507 1.130459 -3.158584
RightToeBase -4.197558 -0.000000 0.000000
922
root -1.699491 32.857885 2.430916 10.999127 -0.867787 -2.523066
Spine -12.621257 5.834327 1.316363
Head -9.896811 -10.322539 13.152066
LeftShoulder -14.848159 22.599595 28.356981
LeftArm 18.169634 -24.513008 -26.289750
LeftForeArm 9.757879 -0.000000 11.444545
LeftHand -26.964465 -0.000000 -8.855064
LeftHandThumb1 -26.253704 0.000000 33.147579
RightShoulder -20.525780 10.134336 -41.059117
RightArm -8.339852 10.393948 28.952933
RightForeArm -31.613972 -0.000000 15.984479
RightHand -12.424797 0.000000 8.217423
RightHandThumb1 -24.326973 -0.000000 -32.862282
LeftUpLeg -5.600401 14.012484 -2.479389
LeftLeg -0.202190 -0.000000 0.000000
LeftFoot -7.500065 -6.501933 -19.598208
LeftToeBase 4.352861 -0.000000 -0.000000
RightUpLeg -6.374031 -3.169575 2.619606
RightLeg 2.314376 -0.000000 -0.000000
RightFoot -9.029313 1.151879 -3.182074
RightToeBase -4.202874 -0.000000 0.000000
